<mxfile host="Electron" agent="Mozilla/5.0 (Windows NT 10.0; Win64; x64) AppleWebKit/537.36 (KHTML, like Gecko) draw.io/24.7.8 Chrome/128.0.6613.36 Electron/32.0.1 Safari/537.36" version="24.7.8">
  <diagram name="Page-1" id="jnCkXLoFDYFhxXH_N0Sx">
    <mxGraphModel dx="1098" dy="988" grid="1" gridSize="10" guides="1" tooltips="1" connect="1" arrows="1" fold="1" page="1" pageScale="1" pageWidth="850" pageHeight="1100" math="0" shadow="0">
      <root>
        <mxCell id="0" />
        <mxCell id="1" parent="0" />
        <mxCell id="U-t2tcPcUnqknYB4p4qN-14" value="Code" style="rounded=0;whiteSpace=wrap;html=1;verticalAlign=top;fontSize=18;" vertex="1" parent="1">
          <mxGeometry x="40" y="210" width="80" height="70" as="geometry" />
        </mxCell>
        <mxCell id="U-t2tcPcUnqknYB4p4qN-15" value="Compiler&lt;div style=&quot;font-size: 12px;&quot;&gt;&lt;br&gt;&lt;/div&gt;&lt;div style=&quot;font-size: 12px;&quot;&gt;Register allocation&lt;/div&gt;" style="rounded=0;whiteSpace=wrap;html=1;verticalAlign=top;fontSize=18;" vertex="1" parent="1">
          <mxGeometry x="150" y="210" width="110" height="70" as="geometry" />
        </mxCell>
        <mxCell id="U-t2tcPcUnqknYB4p4qN-16" value="CPU&lt;div style=&quot;font-size: 8px;&quot;&gt;&lt;br&gt;&lt;div style=&quot;font-size: 12px;&quot;&gt;Branch prediction&lt;/div&gt;&lt;div style=&quot;font-size: 12px;&quot;&gt;Out of order&lt;/div&gt;&lt;/div&gt;" style="rounded=0;whiteSpace=wrap;html=1;verticalAlign=top;fontSize=18;" vertex="1" parent="1">
          <mxGeometry x="290" y="210" width="110" height="70" as="geometry" />
        </mxCell>
        <mxCell id="U-t2tcPcUnqknYB4p4qN-17" value="Cache&lt;div style=&quot;font-size: 12px;&quot;&gt;&lt;br&gt;&lt;/div&gt;&lt;div style=&quot;font-size: 12px;&quot;&gt;Prefetching&lt;/div&gt;&lt;div style=&quot;font-size: 12px;&quot;&gt;Buffering&lt;/div&gt;" style="rounded=0;whiteSpace=wrap;html=1;verticalAlign=top;fontSize=18;" vertex="1" parent="1">
          <mxGeometry x="446" y="208" width="80" height="70" as="geometry" />
        </mxCell>
        <mxCell id="U-t2tcPcUnqknYB4p4qN-19" value="Memory" style="rounded=0;whiteSpace=wrap;html=1;verticalAlign=top;fontSize=18;" vertex="1" parent="1">
          <mxGeometry x="571" y="158" width="80" height="30" as="geometry" />
        </mxCell>
        <mxCell id="U-t2tcPcUnqknYB4p4qN-20" value="" style="rounded=0;whiteSpace=wrap;html=1;verticalAlign=top;fontSize=18;" vertex="1" parent="1">
          <mxGeometry x="571" y="188" width="80" height="30" as="geometry" />
        </mxCell>
        <mxCell id="U-t2tcPcUnqknYB4p4qN-21" value="" style="rounded=0;whiteSpace=wrap;html=1;verticalAlign=top;fontSize=18;" vertex="1" parent="1">
          <mxGeometry x="571" y="218" width="80" height="30" as="geometry" />
        </mxCell>
        <mxCell id="U-t2tcPcUnqknYB4p4qN-22" value="" style="rounded=0;whiteSpace=wrap;html=1;verticalAlign=top;fontSize=18;" vertex="1" parent="1">
          <mxGeometry x="571" y="248" width="80" height="30" as="geometry" />
        </mxCell>
        <mxCell id="U-t2tcPcUnqknYB4p4qN-23" value="" style="rounded=0;whiteSpace=wrap;html=1;verticalAlign=top;fontSize=18;" vertex="1" parent="1">
          <mxGeometry x="571" y="278" width="80" height="30" as="geometry" />
        </mxCell>
        <mxCell id="U-t2tcPcUnqknYB4p4qN-24" value="" style="rounded=0;whiteSpace=wrap;html=1;verticalAlign=top;fontSize=18;" vertex="1" parent="1">
          <mxGeometry x="571" y="308" width="80" height="30" as="geometry" />
        </mxCell>
        <mxCell id="U-t2tcPcUnqknYB4p4qN-26" value="" style="shape=flexArrow;endArrow=classic;startArrow=classic;html=1;rounded=0;exitX=1;exitY=0.5;exitDx=0;exitDy=0;" edge="1" parent="1" source="U-t2tcPcUnqknYB4p4qN-17">
          <mxGeometry width="100" height="100" relative="1" as="geometry">
            <mxPoint x="471" y="338" as="sourcePoint" />
            <mxPoint x="572" y="243" as="targetPoint" />
          </mxGeometry>
        </mxCell>
        <mxCell id="U-t2tcPcUnqknYB4p4qN-27" value="" style="shape=flexArrow;endArrow=classic;startArrow=classic;html=1;rounded=0;exitX=1;exitY=0.5;exitDx=0;exitDy=0;" edge="1" parent="1">
          <mxGeometry width="100" height="100" relative="1" as="geometry">
            <mxPoint x="400" y="244.58" as="sourcePoint" />
            <mxPoint x="446" y="244.58" as="targetPoint" />
          </mxGeometry>
        </mxCell>
        <mxCell id="U-t2tcPcUnqknYB4p4qN-28" value="" style="endArrow=classic;html=1;rounded=0;" edge="1" parent="1">
          <mxGeometry width="50" height="50" relative="1" as="geometry">
            <mxPoint x="119" y="243" as="sourcePoint" />
            <mxPoint x="150" y="242.76" as="targetPoint" />
          </mxGeometry>
        </mxCell>
        <mxCell id="U-t2tcPcUnqknYB4p4qN-29" value="" style="endArrow=classic;html=1;rounded=0;entryX=-0.001;entryY=0.422;entryDx=0;entryDy=0;entryPerimeter=0;exitX=1;exitY=0.422;exitDx=0;exitDy=0;exitPerimeter=0;" edge="1" parent="1">
          <mxGeometry width="50" height="50" relative="1" as="geometry">
            <mxPoint x="260" y="242.82999999999996" as="sourcePoint" />
            <mxPoint x="289.89" y="242.82999999999996" as="targetPoint" />
          </mxGeometry>
        </mxCell>
        <mxCell id="U-t2tcPcUnqknYB4p4qN-30" value="" style="verticalLabelPosition=bottom;shadow=0;dashed=0;align=center;html=1;verticalAlign=top;strokeWidth=1;shape=mxgraph.mockup.markup.curlyBrace;whiteSpace=wrap;strokeColor=#000000;rotation=-180;fontStyle=0" vertex="1" parent="1">
          <mxGeometry x="150" y="288" width="380" height="20" as="geometry" />
        </mxCell>
        <mxCell id="U-t2tcPcUnqknYB4p4qN-31" value="&lt;font style=&quot;font-size: 16px;&quot;&gt;Optimization&lt;/font&gt;" style="text;html=1;align=center;verticalAlign=middle;whiteSpace=wrap;rounded=0;" vertex="1" parent="1">
          <mxGeometry x="315" y="308" width="60" height="30" as="geometry" />
        </mxCell>
      </root>
    </mxGraphModel>
  </diagram>
</mxfile>
